<svg xmlns="http://www.w3.org/2000/svg" width="630" height="500" viewBox="0 0 630 500" role="img" aria-label="PSoXide cover">
  <defs>
    <linearGradient id="bg" x1="0" y1="0" x2="0" y2="1">
      <stop offset="0%" stop-color="#11161c"/>
      <stop offset="58%" stop-color="#0c1015"/>
      <stop offset="100%" stop-color="#06080b"/>
    </linearGradient>
    <radialGradient id="cyanGlow" cx="52%" cy="38%" r="58%">
      <stop offset="0%" stop-color="#00bfe6" stop-opacity="0.20"/>
      <stop offset="42%" stop-color="#00bfe6" stop-opacity="0.06"/>
      <stop offset="100%" stop-color="#00bfe6" stop-opacity="0"/>
    </radialGradient>
    <linearGradient id="accentX" x1="256" y1="43.5" x2="330.5" y2="111.5" gradientUnits="userSpaceOnUse">
      <stop offset="0%" stop-color="#00c4ec"/>
      <stop offset="100%" stop-color="#00bfe6"/>
    </linearGradient>
    <filter id="softGlow" x="-35%" y="-35%" width="170%" height="170%">
      <feGaussianBlur stdDeviation="6"/>
    </filter>
    <clipPath id="coverClip">
      <rect x="10" y="10" width="610" height="480" rx="44"/>
    </clipPath>
  </defs>

  <rect x="10" y="10" width="610" height="480" rx="44" fill="url(#bg)"/>
  <rect x="12" y="12" width="606" height="476" rx="42" fill="none" stroke="#00bfe6" stroke-opacity="0.10" stroke-width="2"/>
  <g clip-path="url(#coverClip)">
    <ellipse cx="334" cy="182" rx="255" ry="172" fill="url(#cyanGlow)"/>
    <path d="M28 354 H602 M28 381 H602 M28 408 H602 M28 435 H602 M28 462 H602" stroke="#25313c" stroke-width="1.4" stroke-opacity="0.85"/>
    <path d="M75 322 L205 495 M155 316 L292 495 M235 311 L380 495 M315 307 L468 495 M395 304 L558 495" stroke="#17242e" stroke-width="1.4" stroke-opacity="0.95"/>
    <path d="M28 408 H602" stroke="#00bfe6" stroke-width="1.2" stroke-opacity="0.12"/>
  </g>

  <g transform="translate(72 154) scale(1.08) translate(-55 -44)">
    <path fill="#ffffff" fill-rule="evenodd" d="M 55.50,44.50 L 108.50,44.50 L 114.50,47.50 L 118.00,53.00 L 118.00,78.00 L 114.50,84.00 L 108.50,88.50 L 69.50,88.50 L 69.50,111.50 L 55.50,111.50 L 55.50,44.50 Z M 137.00,44.50 L 181.50,45.00 L 181.00,54.50 L 143.00,54.50 L 140.50,57.00 L 140.50,70.00 L 142.00,71.50 L 178.00,72.50 L 181.50,75.00 L 184.50,82.00 L 184.50,102.00 L 181.00,108.50 L 173.00,111.50 L 129.50,111.00 L 129.50,102.00 L 131.00,100.50 L 170.00,100.50 L 171.50,99.00 L 171.50,84.00 L 170.00,82.50 L 138.00,82.50 L 130.50,78.00 L 128.50,74.00 L 128.50,52.00 L 132.00,46.50 L 137.00,44.50 Z M 412.00,45.50 L 422.50,46.00 L 422.50,111.00 L 379.00,111.50 L 373.00,109.50 L 368.50,102.00 L 368.50,73.00 L 370.50,68.00 L 375.00,64.50 L 410.00,64.50 L 412.00,45.50 Z M 343.00,47.50 L 354.00,47.50 L 355.50,49.00 L 355.50,56.00 L 354.00,57.50 L 343.00,57.50 L 343.00,47.50 Z M 70.50,55.50 L 70.50,77.50 L 101.50,77.50 L 104.50,75.00 L 104.50,58.00 L 101.50,55.50 L 70.50,55.50 Z M 458.00,63.50 L 482.50,63.50 L 487.50,66.00 L 490.00,70.50 L 490.00,89.50 L 485.50,93.00 L 449.50,93.00 L 449.50,101.00 L 451.00,102.50 L 488.00,102.50 L 488.00,111.50 L 449.50,111.50 L 443.00,110.50 L 437.50,106.00 L 436.50,103.50 L 436.50,72.00 L 438.50,68.00 L 444.00,64.50 L 458.00,63.50 Z M 204.00,64.50 L 242.00,64.50 L 246.50,67.00 L 248.50,71.00 L 248.50,103.00 L 244.00,109.50 L 237.00,111.50 L 211.00,111.50 L 203.00,110.50 L 197.50,106.00 L 196.50,104.00 L 196.50,71.00 L 200.00,66.50 L 204.00,64.50 Z M 344.00,64.50 L 354.50,65.00 L 354.00,111.50 L 344.00,111.50 L 342.50,110.00 L 342.50,66.00 L 344.00,64.50 Z M 211.00,72.50 L 208.50,74.00 L 208.50,101.00 L 210.00,102.50 L 235.00,102.50 L 236.50,101.00 L 236.50,74.00 L 235.00,72.50 L 211.00,72.50 Z M 384.00,72.50 L 380.50,76.00 L 380.50,99.00 L 381.50,101.00 L 384.00,102.50 L 410.00,102.50 L 411.50,101.00 L 411.50,74.00 L 410.00,72.50 L 384.00,72.50 Z M 450.00,72.50 L 448.50,74.00 L 448.50,84.50 L 479.00,84.50 L 479.00,75.00 L 476.00,72.50 L 450.00,72.50 Z" />
    <path fill="#00c4ec" fill-rule="evenodd" opacity="0.34" filter="url(#softGlow)" d="M 256.00,43.50 L 274.00,43.50 L 293.00,68.50 L 310.00,44.50 L 328.00,43.50 L 328.50,45.00 L 322.50,54.00 L 306.50,74.00 L 305.50,77.00 L 330.50,111.00 L 313.00,111.50 L 296.50,89.00 L 292.00,85.50 L 273.00,111.50 L 259.00,111.50 L 258.00,110.50 L 255.00,111.50 L 280.50,77.00 L 256.00,43.50 Z" />
    <path fill="url(#accentX)" fill-rule="evenodd" d="M 256.00,43.50 L 274.00,43.50 L 293.00,68.50 L 310.00,44.50 L 328.00,43.50 L 328.50,45.00 L 322.50,54.00 L 306.50,74.00 L 305.50,77.00 L 330.50,111.00 L 313.00,111.50 L 296.50,89.00 L 292.00,85.50 L 273.00,111.50 L 259.00,111.50 L 258.00,110.50 L 255.00,111.50 L 280.50,77.00 L 256.00,43.50 Z" />
  </g>

  <text x="315" y="282" text-anchor="middle" fill="#8e9aa8" font-family="Arial, Helvetica, sans-serif" font-size="21" letter-spacing="2">PS1 SDK · ENGINE · EDITOR · EMULATOR</text>
</svg>
